<?xml version="1.0" encoding="UTF-8"?>
<svg width="500px" height="500px" viewBox="0 0 500 500" version="1.1" xmlns="http://www.w3.org/2000/svg" xmlns:xlink="http://www.w3.org/1999/xlink">
    <!-- Generator: Sketch 47 (45396) - http://www.bohemiancoding.com/sketch -->
    <title>isotipo-alt-500x500</title>
    <desc>Created with Sketch.</desc>
    <defs></defs>
    <g id="Logos" stroke="none" stroke-width="1" fill="none" fill-rule="evenodd">
        <g id="isotipo-alt-500x500">
            <g id="Page-1" transform="translate(0.000000, 90.000000)">
                <g id="Group-3" transform="translate(0.000000, 228.186709)" fill="#707070">
                    <path d="M30.9908228,46.9917722 C23.7344937,46.9917722 17.7091772,52.4031646 17.7091772,60.6436709 C17.7091772,69.1278481 23.7344937,74.5392405 30.9908228,74.5392405 C38.1237342,74.5392405 44.2724684,68.8810127 44.2724684,60.6436709 C44.2724684,52.0329114 38.0003165,46.9917722 30.9908228,46.9917722 L30.9908228,46.9917722 Z M44.6427215,89.5424051 L44.6427215,82.4094937 C41.8136076,87.6974684 34.9275316,90.7734177 27.7946203,90.7734177 C13.0351266,90.7734177 0.000316455696,79.0898734 0.000316455696,61.0107595 C0.000316455696,42.564557 13.0351266,30.8810127 27.7946203,30.8810127 C34.9275316,30.8810127 41.8136076,33.8335443 44.6427215,39.121519 L44.6427215,0.874683544 L61.6110759,0.874683544 L61.6110759,89.5424051 L44.6427215,89.5424051 Z" id="Fill-1"></path>
                    <path d="M100.467089,74.4161392 C107.476582,74.4161392 114.362658,69.375 114.362658,60.7642405 C114.362658,52.1566456 107.476582,47.1155063 100.467089,47.1155063 C93.3341772,47.1155063 86.0778481,52.5268987 86.0778481,60.7642405 C86.0778481,69.0047468 93.3341772,74.4161392 100.467089,74.4161392 L100.467089,74.4161392 Z M114.362658,83.0237342 C110.675949,88.5585443 102.06519,90.6503165 97.6379747,90.6503165 C83.0050633,90.6503165 68.3689873,79.2136076 68.3689873,60.7642405 C68.3689873,42.318038 83.0050633,30.8813291 97.6379747,30.8813291 C101.327848,30.8813291 109.935443,32.1123418 114.362658,38.5079114 L114.362658,32.1123418 L131.334177,32.1123418 L131.334177,89.5427215 L114.362658,89.5427215 L114.362658,83.0237342 Z" id="Fill-4"></path>
                    <path d="M161.091139,89.5424051 L143.996203,89.5424051 L143.996203,32.1120253 L161.091139,32.1120253 L161.091139,46.0075949 C164.043671,35.3082278 171.423418,30.8810127 177.325316,30.8810127 C181.382278,30.8810127 181.841139,31.7259494 181.841139,31.7259494 L178.76519,47.0993671 C178.76519,47.0993671 178.062658,46.621519 175.356962,46.621519 C165.518354,46.621519 161.091139,54.371519 161.091139,69.4981013 L161.091139,89.5424051 Z" id="Fill-6"></path>
                    <polygon id="Fill-8" points="257.502848 89.5424051 243.237025 89.5424051 231.923734 53.0170886 221.100949 89.5424051 206.835127 89.5424051 186.053481 32.1120253 204.252848 32.1120253 214.461709 66.2987342 224.543987 32.1120253 239.180063 32.1120253 249.262342 66.2987342 259.471203 32.1120253 277.67057 32.1120253"></polygon>
                    <path d="M283.689873,89.5411392 L300.661392,89.5411392 L300.661392,32.1107595 L283.689873,32.1107595 L283.689873,89.5411392 Z M292.177215,0.873417722 C297.955696,0.873417722 302.629747,5.18037975 302.629747,10.835443 C302.629747,16.4936709 297.955696,20.9208861 292.177215,20.9208861 C286.39557,20.9208861 281.477848,16.4936709 281.477848,10.835443 C281.477848,5.18037975 286.39557,0.873417722 292.177215,0.873417722 L292.177215,0.873417722 Z" id="Fill-10"></path>
                    <path d="M330.418671,89.5424051 L313.323734,89.5424051 L313.323734,32.1120253 L330.418671,32.1120253 L330.418671,40.4727848 C333.49462,34.6943038 340.257278,30.8810127 347.019937,30.8810127 C359.934494,30.8810127 368.051582,38.8746835 368.051582,55.2322785 L368.051582,89.5424051 L350.956646,89.5424051 L350.956646,58.9221519 C350.956646,51.2955696 346.776266,47.4822785 340.99462,47.4822785 C334.969304,47.4822785 330.418671,50.4348101 330.418671,59.1658228 L330.418671,89.5424051 Z" id="Fill-12"></path>
                    <path d="M418.835759,55.7234177 C417.975,48.7139241 411.57943,45.8848101 406.781962,45.8848101 C401.987658,45.8848101 395.468671,48.4670886 393.993987,55.7234177 L418.835759,55.7234177 Z M432.854747,79.0905063 C427.076266,87.6981013 416.376899,90.7708861 406.661709,90.7708861 C390.180696,90.7708861 376.65538,78.7202532 376.65538,60.6411392 C376.65538,42.5651899 390.180696,30.8816456 406.661709,30.8816456 C423.016139,30.8816456 436.054114,43.0556962 436.054114,61.1348101 C436.054114,62.6094937 435.930696,64.9449367 435.807278,66.4227848 L393.747152,66.4227848 C394.607911,73.0620253 401.864241,76.014557 407.889557,76.014557 C412.563608,76.014557 417.604747,74.293038 420.433861,70.6031646 L432.854747,79.0905063 Z" id="Fill-13"></path>
                    <polygon id="Fill-14" points="439.616139 32.1113924 459.54019 32.1113924 468.147785 44.7791139 476.631962 32.1113924 496.432595 32.1113924 477.492722 58.4278481 499.999051 89.5417722 480.198418 89.5417722 468.024367 71.9563291 455.726899 89.5417722 435.926266 89.5417722 458.552848 58.4278481"></polygon>
                </g>
                <path d="M326.801266,36.521519 C312.975316,15.5943038 321.424684,0.999367089 321.424684,0.999367089 C306.256962,1.38544304 292.241139,12.328481 282.832911,21.9297468 C272.848734,20.2018987 261.902532,19.05 250.000633,19.05 C238.478481,19.05 227.149367,20.0088608 217.16519,21.9297468 C207.95,12.521519 193.934177,1.19240506 178.573418,0.999367089 C178.573418,0.999367089 187.022785,15.5943038 173.196835,36.521519 C154.573418,64.7462025 134.987975,162.094304 197.582911,195.116456 C201.80443,197.999367 208.143038,200.303165 215.823418,202.031013 C216.206329,212.974051 224.079747,219.69557 224.079747,219.69557 C228.687342,214.508861 230.798101,208.559494 231.567089,204.717722 C237.326582,205.486709 243.662025,205.676582 250.190506,205.676582 C255.374051,205.676582 260.560759,205.293671 265.358228,204.910759 C266.896203,214.125949 273.231646,219.69557 273.231646,219.69557 C278.608228,213.55 280.336076,206.44557 281.105063,202.796835 C290.320253,200.879114 297.807595,198.189241 302.41519,195.116456 C365.010127,162.094304 345.424684,64.9392405 326.801266,36.521519" id="Fill-15" fill="#79B6DD"></path>
                <path d="M332.945253,102.187342 C332.945253,102.187342 294.160443,116.010127 295.50538,168.427848 C295.50538,168.427848 306.641456,166.7 315.663608,149.611392 C315.663608,149.611392 310.673101,175.532278 295.50538,185.326582 C295.312342,185.133544 334.480063,175.342405 332.945253,102.187342" id="Fill-16" fill="#007BBA"></path>
                <path d="M167.244937,102.187342 C167.244937,102.187342 206.029747,116.010127 204.68481,168.427848 C204.68481,168.427848 193.548734,166.7 184.526582,149.611392 C184.526582,149.611392 189.517089,175.532278 204.68481,185.326582 C204.68481,185.133544 165.517089,175.342405 167.244937,102.187342" id="Fill-17" fill="#007BBA"></path>
                <path d="M211.598101,137.324367 C211.21519,145.387658 216.974684,150.381329 216.974684,150.381329 C221.96519,144.621835 222.351266,137.324367 222.351266,137.324367 L216.781646,146.349684 L211.598101,137.324367 Z" id="Fill-18" fill="#007BBA"></path>
                <path d="M228.49462,137.324367 C228.111709,145.387658 233.871203,150.381329 233.871203,150.381329 C238.861709,144.621835 239.247785,137.324367 239.247785,137.324367 L233.678165,146.349684 L228.49462,137.324367 Z" id="Fill-19" fill="#007BBA"></path>
                <path d="M245.391139,137.324367 C245.008228,145.387658 250.767722,150.381329 250.767722,150.381329 C255.758228,144.621835 256.144304,137.324367 256.144304,137.324367 L250.574684,146.349684 L245.391139,137.324367 Z" id="Fill-20" fill="#007BBA"></path>
                <path d="M262.47943,137.324367 C262.096519,145.387658 267.856013,150.381329 267.856013,150.381329 C272.846519,144.621835 273.232595,137.324367 273.232595,137.324367 L267.662975,146.349684 L262.47943,137.324367 Z" id="Fill-21" fill="#007BBA"></path>
                <path d="M220.238291,156.716772 C219.85538,164.780063 225.614873,169.773734 225.614873,169.773734 C230.60538,164.014241 230.991456,156.716772 230.991456,156.716772 L225.421835,165.742089 L220.238291,156.716772 Z" id="Fill-22" fill="#007BBA"></path>
                <path d="M237.326899,156.716772 C236.943987,164.780063 242.703481,169.773734 242.703481,169.773734 C247.693987,164.014241 248.080063,156.716772 248.080063,156.716772 L242.510443,165.742089 L237.326899,156.716772 Z" id="Fill-23" fill="#007BBA"></path>
                <path d="M254.607278,156.716772 C254.224367,164.780063 259.983861,169.773734 259.983861,169.773734 C264.974367,164.014241 265.360443,156.716772 265.360443,156.716772 L259.790823,165.742089 L254.607278,156.716772 Z" id="Fill-24" fill="#007BBA"></path>
                <path d="M270.927848,156.716772 C270.544937,164.780063 276.30443,169.773734 276.30443,169.773734 C281.294937,164.014241 281.681013,156.716772 281.681013,156.716772 L276.111392,165.742089 L270.927848,156.716772 Z" id="Fill-25" fill="#007BBA"></path>
                <path d="M279.375949,137.324367 C278.993038,145.387658 284.752532,150.381329 284.752532,150.381329 C289.743038,144.621835 290.129114,137.324367 290.129114,137.324367 L284.559494,146.349684 L279.375949,137.324367 Z" id="Fill-26" fill="#007BBA"></path>
                <path d="M211.598101,175.917405 C211.21519,183.980696 216.974684,188.974367 216.974684,188.974367 C221.96519,183.214873 222.351266,175.917405 222.351266,175.917405 L216.781646,184.749684 L211.598101,175.917405 Z" id="Fill-27" fill="#007BBA"></path>
                <path d="M228.49462,175.917405 C228.111709,183.980696 233.871203,188.974367 233.871203,188.974367 C238.861709,183.214873 239.247785,175.917405 239.247785,175.917405 L233.678165,184.749684 L228.49462,175.917405 Z" id="Fill-28" fill="#007BBA"></path>
                <path d="M245.391139,175.917405 C245.008228,183.980696 250.767722,188.974367 250.767722,188.974367 C255.758228,183.214873 256.144304,175.917405 256.144304,175.917405 L250.574684,184.749684 L245.391139,175.917405 Z" id="Fill-29" fill="#007BBA"></path>
                <path d="M262.47943,175.917405 C262.096519,183.980696 267.856013,188.974367 267.856013,188.974367 C272.846519,183.214873 273.232595,175.917405 273.232595,175.917405 L267.662975,184.749684 L262.47943,175.917405 Z" id="Fill-30" fill="#007BBA"></path>
                <path d="M279.375949,175.917405 C278.993038,183.980696 284.752532,188.974367 284.752532,188.974367 C289.743038,183.214873 290.129114,175.917405 290.129114,175.917405 L284.559494,184.749684 L279.375949,175.917405 Z" id="Fill-31" fill="#007BBA"></path>
                <path d="M324.689241,73.9626582 C324.689241,92.5860759 309.711392,107.370886 291.281013,107.370886 C272.65443,107.370886 257.872785,92.3962025 257.872785,73.9626582 C257.872785,55.3392405 272.847468,40.5544304 291.281013,40.5544304 C309.521519,40.3613924 324.689241,55.3392405 324.689241,73.9626582" id="Fill-32" fill="#FFFFFF"></path>
                <path d="M176.077215,73.9626582 C176.077215,92.5860759 191.055063,107.370886 209.485443,107.370886 C228.112025,107.370886 242.893671,92.3962025 242.893671,73.9626582 C242.893671,55.3392405 227.918987,40.5544304 209.485443,40.5544304 C191.244937,40.3613924 176.077215,55.3392405 176.077215,73.9626582" id="Fill-33" fill="#FFFFFF"></path>
                <path d="M224.27057,73.3867089 C224.27057,81.643038 217.549051,88.364557 209.292722,88.364557 C201.036392,88.364557 194.318038,81.643038 194.318038,73.3867089 C194.318038,65.1303797 201.036392,58.4088608 209.292722,58.4088608 C217.359177,58.6018987 224.27057,65.1303797 224.27057,73.3867089" id="Fill-34" fill="#000000"></path>
                <path d="M215.246203,73.3867089 C215.246203,76.6493671 212.559494,79.3392405 209.293671,79.3392405 C206.031013,79.3392405 203.341139,76.6493671 203.341139,73.3867089 C203.341139,70.1240506 206.031013,67.4341772 209.293671,67.4341772 C212.559494,67.4341772 215.246203,70.3139241 215.246203,73.3867089" id="Fill-35" fill="#FFFFFF"></path>
                <path d="M305.296519,73.3867089 C305.296519,81.643038 298.575,88.364557 290.318671,88.364557 C282.062342,88.364557 275.343987,81.643038 275.343987,73.3867089 C275.343987,65.1303797 282.062342,58.4088608 290.318671,58.4088608 C298.768038,58.6018987 305.296519,65.1303797 305.296519,73.3867089" id="Fill-36" fill="#000000"></path>
                <path d="M296.464557,73.3867089 C296.464557,76.6493671 293.777848,79.3392405 290.512025,79.3392405 C287.249367,79.3392405 284.559494,76.6493671 284.559494,73.3867089 C284.559494,70.1240506 287.249367,67.4341772 290.512025,67.4341772 C293.777848,67.4341772 296.464557,70.3139241 296.464557,73.3867089" id="Fill-37" fill="#FFFFFF"></path>
                <path d="M291.088291,103.915506 C278.993354,103.915506 268.623101,96.8110759 264.015506,86.6338608 L314.898418,55.7224684 C318.930063,60.7129747 321.423734,67.2414557 321.423734,74.3458861 C321.040823,90.4756329 307.600949,103.915506 291.088291,103.915506 M209.487025,103.915506 C192.974367,103.915506 179.534494,90.4756329 179.534494,73.9629747 C179.534494,67.0515823 181.838291,60.9060127 185.676899,55.9155063 L236.55981,87.0199367 C231.566139,96.8110759 221.388924,103.915506 209.487025,103.915506 M326.034494,61.8648734 C324.882595,56.6813291 317.009177,42.8585443 317.009177,42.8585443 C308.55981,29.8015823 307.983861,17.896519 307.983861,17.896519 C299.537658,22.8901899 293.009177,28.8427215 288.015506,34.6022152 C287.056646,35.7541139 286.09462,36.5231013 285.135759,37.0990506 C254.224367,28.4566456 223.695886,33.8332278 213.711709,36.1370253 C213.325633,35.7541139 212.749684,35.1781646 212.366772,34.7952532 C207.373101,29.2256329 200.84462,23.2731013 192.398418,18.089557 C192.398418,18.089557 191.62943,29.8015823 183.373101,43.0484177 C183.373101,43.0484177 175.692722,56.6813291 174.347785,62.0579114 C173.006013,65.8996835 172.237025,69.9313291 172.237025,74.1560127 C172.237025,94.5072785 188.942722,111.019937 209.100949,111.019937 C221.775,111.019937 232.718038,104.684494 239.439557,95.0832278 C241.743354,106.412342 249.806646,113.130696 249.806646,113.130696 C249.806646,113.130696 257.869937,106.412342 260.176899,95.0832278 C266.895253,104.684494 278.031329,111.019937 290.512342,111.019937 C310.863608,111.019937 327.376266,94.3142405 327.376266,74.1560127 C328.145253,69.5452532 327.186392,65.5136076 326.034494,61.8648734" id="Fill-38" fill="#007BBA"></path>
            </g>
        </g>
    </g>
</svg>