<?xml version="1.0" encoding="utf-8"?>
<!-- Generator: Adobe Illustrator 22.0.0, SVG Export Plug-In . SVG Version: 6.00 Build 0)  -->
<svg version="1.1" id="Layer_1" xmlns="http://www.w3.org/2000/svg" xmlns:xlink="http://www.w3.org/1999/xlink" x="0px" y="0px"
	 viewBox="0 0 120 80" style="enable-background:new 0 0 120 80;" xml:space="preserve">
<style type="text/css">
	.st0{fill:none;stroke:#4F66DE;stroke-width:3;stroke-linecap:round;stroke-linejoin:round;stroke-miterlimit:10;}
	.st1{fill:#4F66DE;}
	.st2{fill:#FFFFFF;}
</style>
<path class="st0" d="M61.5,11.3c5.6,0,11.9,0.1,17.1,4.1c8.4,6.5,7,12.2,7.1,18.3c0,2.2,0.4,3.6,0.4,3.6l7.8-6.1l-8.8,7l-4.9-9.5"/>
<path class="st0" d="M55.8,62.8c-3.1,0.5-8.6,0.5-13.8-3.8s-6.3-8.5-7.4-14c-0.4-2,0.4-3.6,0.4-3.6l-6.8,7.1l7.2-7.8l4.7,8"/>
<circle class="st1" cx="74.9" cy="55" r="16.2"/>
<ellipse class="st1" cx="46.9" cy="23.4" rx="16" ry="15.3"/>
<g>
	<g>
		<path class="st2" d="M52.7,22.5c1.3-0.7,2.1-2,1.9-4.1c-0.3-2.9-2.5-3.8-5.3-4.1l0-4H47l0,3.9c-0.6,0-1.2,0-1.8,0l0-3.9l-2.2,0
			l0,4c-0.5,0-0.9,0-1.4,0v0l-3,0l0,2.6c0,0,1.6,0,1.6,0c0.9,0,1.2,0.6,1.3,1.1l0,4.5v6.4c0,0.3-0.2,0.8-0.8,0.8c0,0-1.6,0-1.6,0
			l-0.4,2.9h2.9c0.5,0,1.1,0,1.6,0l0,4l2.2,0l0-4c0.6,0,1.2,0,1.8,0l0,4h2.2l0-4c3.7-0.2,6.3-1.3,6.6-5.1
			C56.1,24.4,54.8,23,52.7,22.5z M45.3,17.1c1.2,0,5.1-0.4,5.1,2.4c0,2.7-3.9,2.4-5.1,2.4V17.1z M45.3,29.7l0-5.3
			c1.5,0,6.2-0.5,6.2,2.7C51.5,30,46.8,29.7,45.3,29.7z"/>
	</g>
</g>
<g id="svgg">
	<path id="path0" class="st2" d="M74.9,41.6c-0.1-0.1-0.2-0.3-0.2-0.3c-0.1,0-8,13.2-8.1,13.6c0,0.1,1.1,0.8,4,2.6l4.1,2.5l4.1-2.5
		c2.9-1.8,4.1-2.5,4-2.6c0-0.1-1.8-3-3.9-6.6C76.7,44.8,75,41.8,74.9,41.6 M82.7,56.8c0.1-0.1,0.1-0.1-0.1,0
		c-0.1,0.1-1.9,1.2-4.1,2.5l-3.9,2.4l-0.2-0.1c-0.3-0.2-7.9-4.8-7.9-4.7c0,0,8,11.7,8.1,11.7C74.7,68.4,82.6,57,82.7,56.8"/>
</g>
</svg>
