<?xml version="1.0" encoding="utf-8"?>
<!-- Generator: Adobe Illustrator 22.0.0, SVG Export Plug-In . SVG Version: 6.00 Build 0)  -->
<svg version="1.1" id="Layer_1" xmlns="http://www.w3.org/2000/svg" xmlns:xlink="http://www.w3.org/1999/xlink" x="0px" y="0px"
	 viewBox="0 0 120 80" style="enable-background:new 0 0 120 80;" xml:space="preserve">
<style type="text/css">
	.st0{fill:#546ADE;}
	.st1{fill:#FFFFFF;}
	.st2{fill:none;stroke:#546ADE;stroke-width:4;stroke-miterlimit:10;}
</style>
<g>
	<path class="st0" d="M59.7,63.6l1.5,10.2c0,0-3.8,1.5-6.1,1.6C35.9,76.9,22.3,65,20.5,47c-0.7-7.1,0.5-13.8,4.3-19.8
		c1.6-2.6,2.2-4.3-0.4-6.5c-2.2-1.8-2-2.4,0-4.6c2.1-2.3,2.5-1.3,4.3,0.4c2.3,2.1,3.4,1.9,6,0.6c5.6-2.8,7.4-3.1,11.3-4.3
		c1.5-0.5,2.8-0.4,2.7-2.4c0-0.6,0.2-1.3-0.9-1.5c-1.1-0.2-7.2-0.2-7.2-0.2l0-8.1h21.3l0.3,8.4c0,0-6.7-0.1-7.3,0.2
		c-0.6,0.3-0.6,1-0.6,1.6c-0.1,1,0.3,1.4,0.9,1.7c0.7,0.3,1.6,0.6,2.3,0.7c3,0.6,4.9,1.3,8.5,3.2c6,3.2,4.7,2.9,8.4-0.7
		c2.5-2.5,3.5-0.2,4.5,1.1c1.7,2,2.3,2.1,0.1,4.2c-2.9,2.7-3.2,2.3-0.8,7.7c1.5,3.4,2,4.4,2.9,6.6c1.3,3.1,2.7,6.2-2.3,6.8
		c-7.3,1-6.1,0.1-7.2-4.2c-2.3-8.5-8.1-13.6-16.4-14.9c-8.4-1.4-15.3,2.1-20.4,8.8c-5.6,7.4-5.6,17.3-0.2,25
		c5.2,7.4,14.1,10.4,22.9,7.6C58.5,63.9,59.7,63.6,59.7,63.6z"/>
	<path class="st0" d="M39.7,34.3c4.8,1.9,7.2,7.2,12.2,9c1.1,0.4,1.2,2.6,0.1,3.6c-1.1,1.1-3,0.9-3.5-0.3
		C46.7,41.6,41.9,39.1,39.7,34.3z"/>
</g>
<g>
	<path class="st1" d="M97.7,58.1c-0.5-3.1,0.9-5.8,3.4-8c-0.8-1.6-1.7-3.1-2.7-4.5c-2.9,1.4-5.6,0.6-8-1.1s-3.5-4.2-3.2-7.5
		c-1.6-0.6-3.3-0.9-5-1.1c-1.1,3.1-3.7,5.5-6.6,6.1c-2.9,0.6-6.1-0.8-8.2-3.3c-1.6,0.8-3,1.8-4.3,2.9c1.3,3,1.1,5.7-0.6,8.3
		c-1.7,2.5-4,4.3-7.2,4c-0.5,1.7-0.9,3.4-1.1,5.2c3,1.1,5.2,3.2,5.7,6.3c0.5,3.1-0.8,6.4-3.3,8.6c0.8,1.6,1.7,3.1,2.7,4.5
		c2.9-1.4,5.5-1.2,7.9,0.6c2.4,1.8,3.5,4.2,3.2,7.5c1.6,0.6,3.3,0.9,5,1.1c1.1-3.1,3.7-5.6,6.6-6.1c2.9-0.6,6.1,0.8,8.2,3.3
		c1.6-0.8,3-1.8,4.4-2.9c-1.3-3-1.1-5.7,0.6-8.3c1.7-2.5,4-4.3,7.2-4c0.5-1.7,0.9-3.4,1.1-5.2C100.4,63.2,98.2,61.1,97.7,58.1z
		 M63.9,58.9c1.4-8.2,9.1-13.7,17.3-12.2c8.2,1.5,13.6,9.4,12.2,17.6c-1.4,8.2-9.1,13.7-17.3,12.2C68,75.1,62.5,67.2,63.9,58.9z"/>
</g>
<g>
	<path class="st0" d="M93,58.7c-0.4-2.2,0.7-4.2,2.5-5.7c-0.6-1.2-1.3-2.2-2.1-3.2c-2.2,1-4.2,0.5-6-0.8c-1.8-1.3-2.6-3-2.4-5.4
		c-1.2-0.4-2.5-0.7-3.8-0.8c-0.8,2.2-2.8,4-5,4.4c-2.2,0.4-4.6-0.6-6.1-2.4c-1.2,0.6-2.3,1.3-3.3,2.1c1,2.2,0.8,4.1-0.5,5.9
		c-1.3,1.8-3,3.1-5.4,2.9c-0.4,1.2-0.7,2.5-0.9,3.8c2.2,0.8,3.9,2.3,4.3,4.5S63.9,68.4,62,70c0.6,1.2,1.3,2.2,2.1,3.2
		c2.2-1,4.1-0.9,5.9,0.4c1.8,1.3,2.6,3,2.4,5.4c1.2,0.4,2.5,0.7,3.8,0.8c0.8-2.2,2.8-4,5-4.4c2.2-0.4,4.6,0.6,6.1,2.4
		c1.2-0.6,2.3-1.3,3.3-2.1c-1-2.2-0.8-4.1,0.5-5.9c1.3-1.8,3-3.1,5.4-2.9c0.4-1.2,0.7-2.5,0.8-3.8C95,62.4,93.3,60.9,93,58.7z
		 M67.7,59.3c1-5.9,6.9-9.8,13-8.8c6.1,1.1,10.2,6.7,9.2,12.6c-1,5.9-6.9,9.8-13,8.8C70.7,70.9,66.6,65.3,67.7,59.3z"/>
</g>
<line class="st2" x1="50.6" y1="45.1" x2="39.7" y2="33.8"/>
<ellipse class="st2" cx="51.3" cy="45.9" rx="2.7" ry="2.7"/>
</svg>
