<?xml version="1.0" encoding="utf-8"?>
<!-- Generator: Adobe Illustrator 22.0.0, SVG Export Plug-In . SVG Version: 6.00 Build 0)  -->
<svg version="1.1" id="Layer_1" xmlns="http://www.w3.org/2000/svg" xmlns:xlink="http://www.w3.org/1999/xlink" x="0px" y="0px"
	 viewBox="0 0 600 400" style="enable-background:new 0 0 600 400;" xml:space="preserve">
<style type="text/css">
	.st0{fill:none;stroke:#4F66DE;stroke-width:16;stroke-linecap:round;stroke-linejoin:round;stroke-miterlimit:10;}
	.st1{fill:#FFFFFF;stroke:#FFFFFF;stroke-width:41;stroke-linecap:round;stroke-linejoin:round;stroke-miterlimit:10;}
	.st2{fill:#4F66DE;}
	.st3{fill:none;stroke:#4F66DE;stroke-width:4;stroke-miterlimit:10;}
</style>
<g>
	<path class="st0" d="M300.2,242L299,356.5"/>
	
		<ellipse transform="matrix(0.999 -4.507826e-02 4.507826e-02 0.999 -10.8602 13.781)" class="st0" cx="300.1" cy="247.7" rx="116.2" ry="108.7"/>
	<path class="st0" d="M183.9,247.3c0-3.8,0.3-7.6,0.8-11.4l-0.6,0l-24.6,11.4l24.4,11.5l0.7,0C184.1,255,183.9,251.1,183.9,247.3z"
		/>
	<path class="st0" d="M416.5,236.6l-0.7,0c0.8,7.6,0.7,15.3-0.2,22.9l0.7,0l24.6-11.4L416.5,236.6z"/>
	<path class="st0" d="M218.7,170.5c3-2.7,6-5.3,9.2-7.6l-0.5-0.4l-25.9-8.2l8.4,24.3l0.5,0.4C213,176.1,215.8,173.2,218.7,170.5z"/>
	<path class="st0" d="M390.3,316.8l-0.5-0.4c-2.6,2.9-5.3,5.8-8.3,8.5c-3,2.7-6,5.3-9.2,7.6l0.5,0.4l25.9,8.2L390.3,316.8z"/>
	<path class="st0" d="M301.2,138.9c4.1,0,8.2,0.2,12.2,0.7l0-0.6l-12-22.9L289,138.9l0,0.6C293,139.1,297.1,138.9,301.2,138.9z"/>
	<path class="st0" d="M311.3,356.5l0-0.6c-8.1,0.8-16.3,0.8-24.5-0.1l0,0.6l12,22.9C298.8,379.3,311.3,356.5,311.3,356.5z"/>
	<path class="st0" d="M383.1,171c2.9,2.7,5.6,5.6,8.1,8.6l0.5-0.4l8.9-24.3l-26,8l-0.5,0.4C377.2,165.7,380.2,168.3,383.1,171z"/>
	<path class="st0" d="M225.8,332.5l0.5-0.4c-3.1-2.4-6.1-4.9-9-7.7c-2.9-2.7-5.6-5.6-8.1-8.6l-0.5,0.4l-8.9,24.3L225.8,332.5z"/>
	<path class="st0" d="M193.2,205.7c1.6-3.5,3.4-7,5.4-10.3l-0.6-0.2l-27.3,1.7l17.7,19.4l0.6,0.2
		C190.2,212.9,191.6,209.3,193.2,205.7z"/>
	<path class="st0" d="M411.9,279.1l-0.6-0.2c-2.4,7.3-5.6,14.4-9.6,21.1l0.6,0.2l27.3-1.7L411.9,279.1z"/>
	<g>
		<path class="st0" d="M192.4,289c1.5,3.5,3.3,7,5.2,10.4l-0.6,0.2l-27.3-1.9l18.1-19.3l0.6-0.2C189.5,281.8,190.8,285.4,192.4,289z
			"/>
		<path class="st0" d="M412.5,217l-0.6,0.2c-2.2-7.3-5.3-14.4-9.1-21.2l0.6-0.2l27.3,1.9L412.5,217z"/>
	</g>
	<g>
		<path class="st0" d="M343.6,348.3c3.8-1.5,7.5-3.1,11.1-4.9l0.2,0.6l-2.2,25.5l-20.5-16.8l-0.2-0.6
			C335.9,351,339.8,349.8,343.6,348.3z"/>
		<path class="st0" d="M268,142.7l0.2,0.6c-7.9,2.1-15.5,5.1-22.7,8.7l-0.2-0.6l2.2-25.5L268,142.7z"/>
	</g>
	<path class="st0" d="M401.3,193.6l-101.2,54.1L200,193"/>
	<g>
		<path class="st0" d="M345.6,147.3c3.8,1.5,7.5,3.2,11,5l0.3-0.6l-1.7-25.5l-20.8,16.7l-0.3,0.6C338,144.6,341.8,145.8,345.6,147.3
			z"/>
		<path class="st0" d="M265.9,352.4l0.3-0.6c-7.8-2.2-15.4-5.2-22.5-8.8l-0.3,0.6l1.7,25.5L265.9,352.4z"/>
	</g>
</g>
<g>
	<g>
		<path class="st1" d="M301.6,216.2c10.3-9.3,29.5-14.1,40.7-14.1c21.2,0,37.8,16.5,37.9,16.6c1.8,1.9,4.3,2.9,7,3
			c2.7,0.1,5.1-1,7-2.9c9.7-9.6,20.6-14.5,32.6-14.5c21.1,0,39,14.9,39.1,15.1c1.8,1.5,4.1,2.4,6.4,2.4c1.4,0,2.8-0.3,4.1-0.9
			c3.5-1.6,5.7-5.1,5.7-8.9c0-100.1-81.7-181.5-182-181.5c-100.4,0-182,81.4-182,181.5c0,3.8,2.2,7.3,5.7,8.9
			c3.5,1.6,7.6,1,10.5-1.5c0.2-0.1,18.2-15.1,39.1-15.1c11.9,0,22.9,4.9,32.6,14.5c1.9,1.9,4.5,3.1,7,2.9c2.6,0,5.1-1.1,7-3
			c0.2-0.2,16.8-16.6,37.9-16.6c11.3,0,29.5,4.8,39.8,14.1c0,0,1.1,0.7,2.1,0.8S301.6,216.2,301.6,216.2z M254,56.6
			c-28.1,26.1-47.9,75.8-51.5,135.4c-9.1-4.9-18.8-7.4-29.2-7.4c-13.4,0-25.5,4.2-34.7,8.8C146.1,128.3,192.5,74.8,254,56.6z
			 M461.4,193.4c-9.1-4.5-21.2-8.8-34.7-8.8c-10.4,0-20.2,2.5-29.2,7.4c-3.6-59.6-23.3-109.3-51.5-135.4
			C407.5,74.8,453.9,128.3,461.4,193.4z M342.3,182.5c-11.3,0-22.2,3.1-32.4,9.2V78.3V57.7c4.9,17.9,21.4,78.1,68,135.1
			C368.8,187.5,356.5,182.5,342.3,182.5z M222.2,192.8c48.7-67.5,57.6-125,68-135.1v20.7v113.4c-10.3-6.1-21.1-9.2-32.4-9.2
			C243.5,182.5,231.2,187.5,222.2,192.8z"/>
	</g>
</g>
<g>
	<g>
		<path class="st2" d="M309.8,216.1c10.3-9.3,21.2-14.1,32.4-14.1c21.2,0,37.8,16.5,37.9,16.6c1.8,1.9,4.3,2.9,7,3
			c2.7,0.1,5.1-1,7-2.9c9.7-9.6,20.6-14.5,32.6-14.5c21.1,0,39,14.9,39.1,15.1c1.8,1.5,4.1,2.4,6.4,2.4c1.4,0,2.8-0.3,4.1-0.9
			c3.5-1.6,5.7-5.1,5.7-8.9c0-100.1-81.7-181.5-182-181.5c-100.4,0-182,81.4-182,181.5c0,3.8,2.2,7.3,5.7,8.9
			c3.5,1.6,7.6,1,10.5-1.5c0.2-0.1,18.2-15.1,39.1-15.1c11.9,0,22.9,4.9,32.6,14.5c1.9,1.9,4.5,3.1,7,2.9c2.6,0,5.1-1.1,7-3
			c0.2-0.2,16.8-16.6,37.9-16.6c11.3,0,22.1,4.8,32.4,14.1c0,0,5.8,4.9,10.4,5C305.2,221.2,309.8,216.1,309.8,216.1z M254,56.6
			c-28.1,26.1-47.9,75.8-51.5,135.4c-9.1-4.9-18.8-7.4-29.2-7.4c-13.4,0-25.5,4.2-34.7,8.8C146.1,128.3,192.5,74.8,254,56.6z
			 M461.4,193.4c-9.1-4.5-21.2-8.8-34.7-8.8c-10.4,0-20.2,2.5-29.2,7.4c-3.6-59.6-23.3-109.3-51.5-135.4
			C407.5,74.8,453.9,128.3,461.4,193.4z M342.3,182.5c-11.3,0-22.2,3.1-32.4,9.2V78.3V57.7c34.9,9.1,63.5,65.8,68,135.1
			C368.8,187.5,356.5,182.5,342.3,182.5z M222.2,192.8c4.5-69.3,33.1-126,68-135.1v20.7v113.4c-10.3-6.1-21.1-9.2-32.4-9.2
			C243.5,182.5,231.2,187.5,222.2,192.8z"/>
	</g>
</g>
<line class="st3" x1="135.5" y1="312.5" x2="136" y2="334.7"/>
<line class="st3" x1="146" y1="323.6" x2="125.5" y2="323.6"/>
<line class="st3" x1="446.8" y1="367.9" x2="447.2" y2="390.1"/>
<line class="st3" x1="457.2" y1="379" x2="436.8" y2="379"/>
</svg>
