<?xml version="1.0" encoding="utf-8"?>
<!-- Generator: Adobe Illustrator 22.0.0, SVG Export Plug-In . SVG Version: 6.00 Build 0)  -->
<svg version="1.1" xmlns="http://www.w3.org/2000/svg" xmlns:xlink="http://www.w3.org/1999/xlink" x="0px" y="0px"
	 viewBox="0 0 120 80" style="enable-background:new 0 0 120 80;" xml:space="preserve">
<style type="text/css">
	.st0{fill:#4F66DE;}
	.st1{fill:#FFFFFF;}
	.st2{fill:#4F66DE;stroke:#5067DF;stroke-miterlimit:10;}
	.st3{fill:none;stroke:#FFFFFF;stroke-width:3;stroke-linecap:round;stroke-linejoin:round;stroke-miterlimit:10;}
</style>
<g id="Layer_5">
	<path class="st0" d="M80.5,67.1c0.3-0.4,0.6-1,0.6-2.2c0,0-0.4-16-4-20.7c0,0-1-1.3-3.4-2.1c0,0-0.2-0.1-0.5-0.1
		C71,41,69,40.4,69,40.4c-0.4-0.1-0.8-0.3-1.2-0.4c-1.4-0.7-2.5-1.4-2.5-1.4s0-0.3-1.2-1.3l-12.8,0L51,37.9l0,0l0,0.1c0,0,0,0,0,0v0
		l0,0c-0.7,1.9-8.7,4.1-8.7,4.1c-2.4,0.8-3.4,2.1-3.4,2.1c-3.5,4.8-4,20.7-4,20.7c0,1.1-0.3,3.4-0.1,3.8c-0.5-0.2,3-0.1,4.6,0.2
		l3.4,0.7c7,1.5,14.1,1.9,14.1,1.9c0.7,0,1.3,0,2-0.1l0,0.1c0,0,7.4-0.3,14.6-2"/>
</g>
<g id="Layer_12">
	<g id="Layer_2">
		<path class="st1" d="M58.4,42.9c-2.9,0-6.4-2.2-8.2-6.1c-2.1-4.4-3.4-6.3-3.4-10.5s-0.7-10.3,0-12c0.7-1.8,5.8-6.4,11.2-6.6
			c5.4-0.2,10.5,3.5,11.8,7.3c0.8,2.2,0.4,9.7,0.4,11.5c0,2.4-2.1,7.7-3.9,10.1C64.6,38.9,61.3,42.9,58.4,42.9z"/>
	</g>
	<g id="Layer_2_copy_2">
		<path class="st2" d="M58.4,40c-2.5,0-5.5-1.8-7.1-5.2c-1.8-3.7-2.9-5.3-2.9-8.8s-0.6-8.7,0-10.2c0.6-1.5,5-5.5,9.6-5.6
			c7.6-0.2,9.1,3,10.2,6.2c0.6,1.9,0.3,8.2,0.3,9.8c0,2-1.8,6.5-3.3,8.5S60.9,40,58.4,40z"/>
	</g>
	<g id="Layer_2_copy">
		<path class="st1" d="M58.4,39.1c-2.1,0-4.7-1.6-6.1-4.5c-1.5-3.2-2.5-4.7-2.5-7.7s0-5,0-6.8c0-2.4,16.7-2.8,16.9-0.1
			c0.2,1.7,0.3,5.7,0.3,7.1c0,1.7-1.6,5.7-2.8,7.4S60.6,39.1,58.4,39.1z"/>
	</g>
</g>
<g id="Layer_11">
	<g id="Layer_6">
		<path class="st1" d="M100.2,43.4l-16-5.5c-0.1,0-0.2,0-0.4,0l-16,5.5c-0.2,0.1-0.4,0.3-0.4,0.5c0,5.6,1.5,12.1,4.1,17.8
			c2.1,4.6,6,10.8,12.2,13.9c0.1,0,0.2,0.1,0.3,0.1s0.2,0,0.3-0.1c6.2-3.1,10-9.3,12.2-13.9c2.6-5.7,4.1-12.2,4.1-17.8
			C100.5,43.7,100.4,43.5,100.2,43.4z"/>
	</g>
	<g id="Layer_6_copy_2">
		<path class="st0" d="M98.2,44.7l-14.1-5c-0.1,0-0.2,0-0.3,0l-14.1,5c-0.2,0.1-0.3,0.3-0.3,0.5c0,5.1,1.3,11,3.7,16.1
			c1.9,4.2,5.3,9.8,10.7,12.6c0.1,0,0.1,0.1,0.2,0.1s0.2,0,0.2-0.1c5.4-2.8,8.8-8.4,10.7-12.6c2.3-5.2,3.7-11,3.7-16.1
			C98.6,44.9,98.4,44.7,98.2,44.7z"/>
	</g>
	<g id="Layer_6_copy_3">
		<path class="st1" d="M96.5,46.2l-12.4-4.4c-0.1,0-0.2,0-0.3,0l-12.4,4.4c-0.2,0.1-0.3,0.2-0.3,0.4c0,4.4,1.2,9.5,3.2,14
			c1.7,3.6,4.6,8.5,9.4,11c0.1,0,0.1,0,0.2,0c0.1,0,0.1,0,0.2,0c4.8-2.5,7.8-7.3,9.4-11c2-4.5,3.2-9.6,3.2-14
			C96.8,46.4,96.7,46.3,96.5,46.2z"/>
	</g>
	<g id="Layer_6_copy">
		<path class="st0" d="M94.9,47.5l-10.8-3.8c-0.1,0-0.2,0-0.2,0l-10.8,3.8c-0.1,0.1-0.2,0.2-0.2,0.3c0,3.9,1,8.4,2.8,12.3
			c1.4,3.2,4,7.4,8.2,9.6c0.1,0,0.1,0,0.2,0c0.1,0,0.1,0,0.2,0c4.2-2.2,6.8-6.4,8.2-9.6c1.8-3.9,2.8-8.4,2.8-12.3
			C95.1,47.7,95,47.6,94.9,47.5z"/>
	</g>
	<g id="Layer_10">
		<g>
			<path class="st3" d="M77.1,56c0,0,1.9,1.6,3.4,3c1.5,1.3,3.5,3,3.5,3s2.5-3.8,3.7-5.7c1.2-1.8,3.7-5.7,3.7-5.7"/>
		</g>
	</g>
</g>
</svg>
