<?xml version="1.0" encoding="UTF-8" standalone="no"?>
<!-- Generator: Adobe Illustrator 16.0.0, SVG Export Plug-In . SVG Version: 6.00 Build 0)  -->

<svg
   xmlns:dc="http://purl.org/dc/elements/1.1/"
   xmlns:cc="http://creativecommons.org/ns#"
   xmlns:rdf="http://www.w3.org/1999/02/22-rdf-syntax-ns#"
   xmlns:svg="http://www.w3.org/2000/svg"
   xmlns="http://www.w3.org/2000/svg"
   xmlns:sodipodi="http://sodipodi.sourceforge.net/DTD/sodipodi-0.dtd"
   xmlns:inkscape="http://www.inkscape.org/namespaces/inkscape"
   version="1.1"
   id="Capa_1"
   x="0px"
   y="0px"
   width="792px"
   height="792px"
   viewBox="0 0 792 792"
   style="enable-background:new 0 0 792 792;"
   xml:space="preserve"
   sodipodi:docname="footer-facebook.svg"
   inkscape:version="0.92.2 (5c3e80d, 2017-08-06)"><metadata
     id="metadata44"><rdf:RDF><cc:Work
         rdf:about=""><dc:format>image/svg+xml</dc:format><dc:type
           rdf:resource="http://purl.org/dc/dcmitype/StillImage" /></cc:Work></rdf:RDF></metadata><defs
     id="defs42" /><sodipodi:namedview
     pagecolor="#ffffff"
     bordercolor="#666666"
     borderopacity="1"
     objecttolerance="10"
     gridtolerance="10"
     guidetolerance="10"
     inkscape:pageopacity="0"
     inkscape:pageshadow="2"
     inkscape:window-width="1920"
     inkscape:window-height="983"
     id="namedview40"
     showgrid="false"
     inkscape:zoom="0.2979798"
     inkscape:cx="402.71186"
     inkscape:cy="396"
     inkscape:window-x="0"
     inkscape:window-y="25"
     inkscape:window-maximized="1"
     inkscape:current-layer="Capa_1" /><g
     id="g7"
     style="fill:#3d65bf;fill-opacity:1"><g
       id="facebook"
       style="fill:#3d65bf;fill-opacity:1"><g
         id="g4"
         style="fill:#3d65bf;fill-opacity:1"><path
           d="M614.582,0.128L494.197,0.184c0,0-2.439-0.184-6.826-0.184C462.67,0,337.754,6.863,303.768,140.809     c-0.532,1.486-11.965,35.014-12.148,112.988h-114.2c-10.129,0-18.351,8.221-18.351,18.351v105.226     c0,10.13,8.222,18.351,18.351,18.351h124.898v377.924c0,10.13,8.221,18.352,18.351,18.352H463.68     c10.129,0,18.352-8.222,18.352-18.352V396.109h125.301c10.131,0,18.352-8.221,18.352-18.351V272.148     c0-10.13-8.221-18.351-18.352-18.351H482.287v-45.163c0-30.078,19.086-62.21,72.672-62.21h59.623     c10.129,0,18.35-8.221,18.35-18.351V18.479C632.932,8.35,624.729,0.128,614.582,0.128z M596.23,109.722h-41.271     c-75.553,0-109.373,49.677-109.373,98.913v63.514c0,10.13,8.221,18.351,18.35,18.351H588.98v68.909H463.68     c-10.131,0-18.352,8.221-18.352,18.351v377.539H339.02V377.374c0-10.13-8.221-18.351-18.351-18.351H195.771v-68.523h114.346     c4.936,0,9.652-1.982,13.103-5.505s5.34-8.276,5.249-13.213c-1.633-83.461,9.836-118.604,10.387-120.384     C365.923,44.979,459.385,36.702,487.371,36.702c2.551,0,4.074,0.074,5.561,0.129H596.23V109.722L596.23,109.722z"
           id="path2"
           style="fill:#3d65bf;fill-opacity:1" /></g></g></g><g
     id="g9" /><g
     id="g11" /><g
     id="g13" /><g
     id="g15" /><g
     id="g17" /><g
     id="g19" /><g
     id="g21" /><g
     id="g23" /><g
     id="g25" /><g
     id="g27" /><g
     id="g29" /><g
     id="g31" /><g
     id="g33" /><g
     id="g35" /><g
     id="g37" /></svg>