<?xml version="1.0" encoding="utf-8"?>
<!-- Generator: Adobe Illustrator 16.0.0, SVG Export Plug-In . SVG Version: 6.00 Build 0)  -->
<!DOCTYPE svg PUBLIC "-//W3C//DTD SVG 1.1//EN" "http://www.w3.org/Graphics/SVG/1.1/DTD/svg11.dtd">
<svg version="1.1" id="Layer_1" xmlns="http://www.w3.org/2000/svg" xmlns:xlink="http://www.w3.org/1999/xlink" x="0px" y="0px"
	 width="574px" height="133.333px" viewBox="15.833 327.167 574 133.333" enable-background="new 15.833 327.167 574 133.333"
	 xml:space="preserve">
<g id="Layer_1_1_" display="none">
	<rect x="-16.893" y="311.595" display="inline" fill="#2F3EAD" width="631.867" height="172.491"/>
</g>
<g id="Layer_4">
	<g opacity="0.4">
		<path fill="#2C3770" d="M247.463,435.328h-9.088c-1.032,0-1.859-0.207-2.271-0.826c-0.62-0.413-1.033-1.033-1.239-1.859
			l-2.893-12.806h-26.025l-6.403,12.806c-0.412,0.62-0.825,1.239-1.651,1.859c-0.827,0.619-1.652,0.826-2.686,0.826h-9.088
			l33.461-62.792h11.979L247.463,435.328z M210.284,411.574h20.035l-4.751-20.861c-0.206-0.826-0.412-2.065-0.619-3.305
			s-0.413-2.686-0.62-4.131c-0.619,1.445-1.239,2.892-1.858,4.131c-0.62,1.239-1.033,2.479-1.652,3.305L210.284,411.574z"/>
		<path fill="#2C3770" d="M250.148,449.787l8.262-59.074h6.609c1.446,0,2.272,0.62,2.479,1.859l0.207,4.131
			c2.065-2.065,4.338-3.718,6.816-4.957c2.479-1.24,5.37-1.859,8.468-1.859c2.479,0,4.545,0.413,6.403,1.446
			c1.859,1.033,3.305,2.479,4.544,4.337c1.239,1.859,2.065,4.338,2.479,7.022c0.414,2.893,0.414,5.991-0.206,9.709
			c-0.413,3.304-1.446,6.402-2.686,9.295c-1.239,2.891-2.892,5.369-4.957,7.436c-1.859,2.064-4.131,3.718-6.816,4.957
			c-2.479,1.239-5.163,1.859-8.262,1.859c-2.479,0-4.544-0.414-6.196-1.24s-3.099-1.858-4.338-3.098l-2.479,18.177H250.148z
			 M278.239,398.355c-2.272,0-4.131,0.413-5.99,1.446c-1.652,1.032-3.305,2.271-4.957,3.924l-2.892,20.035
			c1.032,1.446,2.271,2.479,3.512,3.099c1.445,0.619,2.892,0.826,4.544,0.826s3.098-0.207,4.544-0.826
			c1.445-0.62,2.685-1.445,3.718-2.685c1.032-1.239,2.065-2.893,2.686-4.752c0.619-1.858,1.239-4.13,1.652-6.609
			c0.412-2.685,0.412-4.75,0.206-6.608c-0.206-1.859-0.619-3.306-1.239-4.338c-0.619-1.033-1.445-1.859-2.479-2.479
			C280.924,398.769,279.685,398.355,278.239,398.355z"/>
		<path fill="#2C3770" d="M322.234,377.907c-0.207,0.826-0.414,1.858-1.033,2.685c-0.413,0.827-1.032,1.446-1.859,2.066
			c-0.619,0.619-1.444,1.032-2.479,1.445c-0.825,0.413-1.858,0.619-2.685,0.619s-1.858-0.206-2.479-0.619
			c-0.826-0.413-1.445-0.826-1.858-1.445c-0.62-0.62-0.826-1.239-1.24-2.066c-0.206-0.826-0.206-1.652-0.206-2.685
			c0.206-1.033,0.413-1.859,0.826-2.686s1.033-1.652,1.859-2.065c0.619-0.62,1.445-1.032,2.271-1.445
			c0.826-0.414,1.859-0.62,2.686-0.62c1.032,0,1.859,0.206,2.685,0.62c0.826,0.413,1.446,0.825,2.065,1.445
			c0.62,0.619,1.032,1.239,1.239,2.065S322.44,376.874,322.234,377.907z M318.93,390.92l-6.196,44.408h-10.741l6.196-44.408H318.93z
			"/>
		<path fill="#2C3770" d="M338.346,435.948c-3.925,0-6.61-1.034-8.47-3.306c-1.858-2.271-2.271-5.164-1.858-9.088l3.512-24.786
			h-4.545c-0.619,0-1.032-0.206-1.445-0.619c-0.413-0.414-0.413-1.033-0.413-1.653l0.619-4.337l7.229-1.239l3.925-12.187
			c0.207-0.62,0.619-1.033,1.032-1.446c0.414-0.413,1.033-0.413,1.653-0.413h5.576l-2.065,14.046h11.98l-1.032,7.643h-11.98
			l-3.306,24.373c-0.206,1.444,0,2.479,0.62,3.304c0.619,0.826,1.446,1.239,2.686,1.239c0.619,0,1.239,0,1.652-0.206
			c0.412-0.207,0.826-0.413,1.239-0.413c0.412-0.206,0.619-0.413,1.032-0.413c0.207-0.207,0.619-0.207,0.826-0.207
			c0.413,0,0.62,0,0.826,0.207s0.413,0.413,0.62,0.619l2.479,5.164c-1.653,1.239-3.718,2.272-5.783,2.892
			C342.683,435.741,340.41,435.948,338.346,435.948z"/>
		<path fill="#2C3770" d="M355.901,435.328l6.196-44.408h6.196c1.034,0,1.86,0.206,2.273,0.619c0.412,0.413,0.619,1.033,0.619,2.066
			v4.957c1.859-2.686,3.718-4.751,5.784-6.196c2.064-1.446,4.543-2.272,7.021-2.272c2.066,0,3.718,0.412,4.752,1.445l-1.859,8.056
			c-0.207,0.619-0.414,0.826-0.826,1.033c-0.207,0.206-0.62,0.413-1.239,0.413c-0.413,0-1.033,0-1.859-0.207
			c-0.826-0.206-1.652-0.206-2.479-0.206c-1.239,0-2.271,0.206-3.305,0.619s-1.859,0.826-2.685,1.445
			c-0.827,0.62-1.653,1.446-2.273,2.273c-0.619,0.825-1.444,2.064-2.064,3.098l-3.512,27.265H355.901z"/>
		<path fill="#2C3770" d="M416.834,435.328c-1.032,0-1.859-0.207-2.271-0.414c-0.413-0.206-0.827-0.825-1.033-1.858l-0.413-3.099
			c-1.239,1.033-2.479,1.859-3.718,2.686s-2.479,1.446-3.512,1.859c-1.239,0.619-2.479,0.826-3.925,1.239
			c-1.444,0.207-2.891,0.412-4.337,0.412c-1.859,0-3.512-0.205-5.163-0.825c-1.446-0.414-2.686-1.239-3.718-2.272
			c-1.034-1.032-1.653-2.271-2.066-3.718c-0.412-1.445-0.412-3.305-0.207-5.163c0.207-1.653,0.827-3.306,2.066-4.958
			c1.032-1.652,2.686-3.098,4.957-4.337s5.164-2.479,8.675-3.306c3.511-0.826,7.849-1.445,13.013-1.445l0.413-2.685
			c0.413-2.893,0-5.164-1.032-6.61c-1.033-1.445-2.892-2.065-5.164-2.065c-1.652,0-3.099,0.206-4.338,0.62
			c-1.239,0.413-2.271,0.825-3.305,1.445c-1.033,0.413-1.858,1.033-2.479,1.446c-0.826,0.412-1.652,0.619-2.479,0.619
			s-1.446-0.207-1.858-0.619c-0.414-0.413-0.827-0.827-1.033-1.446l-1.445-3.511c5.782-4.751,12.186-7.023,19.415-7.023
			c2.686,0,4.957,0.413,6.815,1.239c1.859,0.827,3.513,2.066,4.752,3.512s2.064,3.305,2.479,5.37
			c0.412,2.065,0.412,4.338,0.206,7.023l-4.544,27.884H416.834z M401.757,428.718c2.271,0,4.13-0.413,5.782-1.239
			c1.653-0.825,3.512-2.064,5.164-3.718l1.032-7.436c-3.098,0.207-5.782,0.413-7.849,0.826c-2.065,0.413-3.925,0.826-5.164,1.446
			c-1.445,0.619-2.271,1.239-3.098,2.064c-0.62,0.827-1.032,1.653-1.239,2.686c-0.206,1.859,0,3.306,1.033,4.131
			C398.451,428.305,399.897,428.718,401.757,428.718z"/>
		<path fill="#2C3770" d="M463.722,435.328c-1.446,0-2.273-0.62-2.479-1.859l-0.206-4.337c-1.033,1.032-2.272,2.064-3.306,2.892
			c-1.032,0.826-2.271,1.651-3.511,2.271c-1.239,0.619-2.479,1.033-3.925,1.446c-1.445,0.412-2.892,0.412-4.338,0.412
			c-2.479,0-4.543-0.412-6.402-1.445c-1.858-1.033-3.512-2.479-4.544-4.337c-1.239-1.859-2.066-4.338-2.479-7.23
			c-0.413-2.891-0.413-5.989,0.207-9.707c0.412-3.305,1.239-6.403,2.684-9.295c1.24-2.892,2.893-5.37,4.958-7.436
			s4.131-3.718,6.815-4.957c2.479-1.24,5.164-1.859,8.056-1.859c2.479,0,4.545,0.413,6.196,1.239
			c1.653,0.826,3.099,1.859,4.338,3.099l3.305-23.547h10.741l-9.502,64.65H463.722z M450.709,427.479
			c2.271,0,4.13-0.413,5.782-1.445c1.653-0.826,3.306-2.272,4.957-3.925l2.893-20.035c-1.033-1.445-2.272-2.479-3.512-3.099
			c-1.445-0.619-2.892-0.825-4.544-0.825s-3.098,0.206-4.544,0.825c-1.446,0.62-2.686,1.446-3.718,2.686s-2.066,2.892-2.686,4.75
			c-0.826,1.859-1.239,4.132-1.652,6.61c-0.413,2.685-0.413,4.751-0.207,6.609c0.207,1.859,0.62,3.306,1.239,4.338
			c0.62,1.239,1.446,2.065,2.479,2.479C448.023,427.272,449.263,427.479,450.709,427.479z"/>
		<path fill="#2C3770" d="M506.271,390.094c2.892,0,5.37,0.412,7.643,1.445c2.271,0.827,4.13,2.272,5.576,3.925
			s2.479,3.925,3.099,6.403s0.619,5.37,0.207,8.468c-0.207,1.652-0.62,2.686-1.033,3.306c-0.413,0.619-1.033,0.825-2.065,0.825
			h-27.471c-0.207,2.272,0,4.338,0.412,5.991c0.414,1.651,1.032,3.098,1.859,4.13c0.826,1.033,2.065,1.859,3.305,2.479
			c1.446,0.62,2.892,0.827,4.545,0.827c1.651,0,3.304-0.207,4.543-0.62s2.479-0.826,3.512-1.446
			c1.033-0.412,1.859-1.032,2.685-1.446c0.827-0.412,1.446-0.619,2.066-0.619c0.826,0,1.446,0.414,1.858,1.033l2.479,3.924
			c-1.446,1.446-2.891,2.479-4.544,3.512c-1.652,1.033-3.305,1.652-4.957,2.272c-1.652,0.619-3.305,1.032-5.163,1.239
			c-1.653,0.207-3.306,0.412-4.957,0.412c-3.099,0-5.991-0.412-8.47-1.445s-4.543-2.479-6.196-4.544
			c-1.652-2.065-2.892-4.544-3.511-7.436c-0.62-2.892-0.827-6.403-0.207-10.327c0.412-3.099,1.239-5.991,2.686-8.47
			c1.446-2.685,3.098-4.957,5.164-7.021c2.064-2.065,4.543-3.512,7.436-4.751C499.868,390.713,502.966,390.094,506.271,390.094z
			 M505.444,397.735c-3.098,0-5.783,0.827-7.643,2.686c-2.065,1.859-3.511,4.338-4.337,7.436h20.241
			c0.207-1.446,0.207-2.686,0-3.925c-0.206-1.239-0.62-2.271-1.239-3.304c-0.62-1.033-1.445-1.653-2.685-2.272
			C508.336,398.149,506.89,397.735,505.444,397.735z"/>
		<path fill="#2C3770" d="M533.67,409.996c0-0.328,0.059-0.639,0.178-0.93c0.121-0.289,0.288-0.543,0.505-0.76
			c0.216-0.215,0.466-0.386,0.75-0.512c0.284-0.125,0.597-0.188,0.938-0.188c0.33,0,0.641,0.062,0.932,0.188
			c0.288,0.126,0.539,0.297,0.75,0.512c0.21,0.217,0.379,0.471,0.503,0.76c0.124,0.291,0.188,0.602,0.188,0.93
			c0,0.342-0.063,0.654-0.188,0.939c-0.124,0.284-0.293,0.535-0.503,0.75c-0.211,0.217-0.462,0.385-0.75,0.504
			c-0.291,0.119-0.602,0.18-0.932,0.18c-0.342,0-0.654-0.061-0.938-0.18s-0.534-0.287-0.75-0.504
			c-0.217-0.215-0.384-0.466-0.505-0.75C533.729,410.65,533.67,410.338,533.67,409.996z"/>
		<path fill="#2C3770" d="M541.145,417.898l2.832-23.227h1.842c0.398,0,0.703,0.1,0.914,0.299s0.316,0.509,0.316,0.93l-0.205,3.004
			c0.42-0.683,0.878-1.297,1.374-1.843c0.494-0.547,1.015-1.016,1.561-1.408c0.546-0.393,1.112-0.694,1.698-0.905
			s1.186-0.315,1.801-0.315c0.729,0,1.385,0.133,1.971,0.4c0.587,0.268,1.083,0.672,1.493,1.212s0.725,1.212,0.948,2.014
			c0.221,0.803,0.332,1.738,0.332,2.808c0,0.967-0.1,1.922-0.299,2.867c-0.199,0.944-0.482,1.84-0.846,2.687
			c-0.363,0.849-0.805,1.636-1.322,2.364c-0.517,0.729-1.089,1.357-1.715,1.885c-0.625,0.529-1.303,0.945-2.031,1.247
			c-0.727,0.3-1.484,0.452-2.27,0.452c-0.818,0-1.561-0.153-2.227-0.461c-0.665-0.308-1.236-0.734-1.715-1.28l-0.888,7.271H541.145z
			 M551.86,397.368c-0.501,0-1.009,0.162-1.527,0.487c-0.517,0.324-1.015,0.775-1.493,1.355s-0.925,1.263-1.339,2.048
			c-0.416,0.785-0.771,1.639-1.067,2.562l-0.546,4.333c0.409,0.513,0.89,0.87,1.442,1.075c0.551,0.205,1.105,0.307,1.663,0.307
			c0.546,0,1.06-0.113,1.536-0.341c0.478-0.228,0.916-0.54,1.314-0.938s0.756-0.867,1.074-1.408c0.318-0.539,0.586-1.117,0.803-1.73
			c0.217-0.615,0.381-1.256,0.494-1.921c0.114-0.666,0.17-1.322,0.17-1.972c0-1.285-0.219-2.25-0.656-2.893
			S552.668,397.368,551.86,397.368z"/>
		<path fill="#2C3770" d="M560.086,412.113l2.1-17.441h1.842c0.398,0,0.703,0.1,0.914,0.299c0.21,0.199,0.314,0.509,0.314,0.93
			l-0.204,3.294c0.455-0.911,0.941-1.694,1.46-2.354c0.517-0.66,1.058-1.178,1.621-1.553c0.562-0.376,1.141-0.6,1.73-0.674
			c0.592-0.074,1.195,0.02,1.811,0.281l-0.667,3.517c-1.444-0.581-2.71-0.396-3.797,0.555c-1.085,0.949-1.959,2.738-2.618,5.367
			l-0.922,7.781H560.086z"/>
		<path fill="#2C3770" d="M578.09,412.369c-0.957,0-1.838-0.162-2.646-0.486s-1.505-0.797-2.09-1.417
			c-0.587-0.62-1.044-1.381-1.374-2.286c-0.331-0.904-0.496-1.932-0.496-3.081c0-1.491,0.237-2.884,0.709-4.181
			c0.473-1.298,1.117-2.427,1.937-3.388s1.778-1.717,2.875-2.269c1.099-0.552,2.272-0.828,3.524-0.828
			c0.957,0,1.838,0.162,2.646,0.486s1.502,0.797,2.082,1.417c0.58,0.62,1.035,1.383,1.366,2.287c0.328,0.904,0.494,1.932,0.494,3.08
			c0,0.979-0.109,1.922-0.324,2.833c-0.217,0.909-0.518,1.761-0.904,2.552c-0.388,0.79-0.857,1.51-1.408,2.158
			c-0.553,0.648-1.16,1.203-1.826,1.663c-0.666,0.462-1.385,0.819-2.158,1.075C579.721,412.24,578.92,412.369,578.09,412.369z
			 M578.414,409.502c0.761,0,1.455-0.213,2.082-0.641c0.625-0.426,1.157-0.998,1.594-1.715c0.439-0.717,0.777-1.545,1.016-2.482
			c0.24-0.939,0.359-1.92,0.359-2.943c0-1.503-0.275-2.614-0.828-3.338c-0.552-0.722-1.367-1.082-2.448-1.082
			c-0.774,0-1.47,0.21-2.091,0.631c-0.619,0.421-1.146,0.984-1.578,1.688c-0.433,0.706-0.768,1.532-1.007,2.476
			c-0.239,0.944-0.358,1.934-0.358,2.969C575.154,408.023,576.24,409.502,578.414,409.502z"/>
		<path fill="#2C3770" d="M162.793,449.15l-48.769-91.034c0,0-4.877-13.005-14.631-13.005s-14.63,13.005-14.63,13.005L34.369,449.15
			h26.01l39.015-74.778l37.389,74.778H162.793z"/>
		<polygon fill="#2C3770" points="123.778,434.521 106.709,434.521 107.035,449.15 90.94,449.15 90.453,434.521 75.01,434.521 
			83.138,419.891 115.65,419.891 		"/>
	</g>
	<g>
		<g>
			<g>
				<linearGradient id="SVGID_1_" gradientUnits="userSpaceOnUse" x1="219.0693" y1="370.0088" x2="216.9093" y2="400.9698">
					<stop  offset="0" style="stop-color:#FFFFFF"/>
					<stop  offset="1" style="stop-color:#F7F7F7"/>
				</linearGradient>
				<path fill="url(#SVGID_1_)" d="M245.463,431.328h-9.088c-1.032,0-1.859-0.207-2.271-0.826c-0.62-0.413-1.033-1.033-1.239-1.859
					l-2.893-12.806h-26.025l-6.403,12.806c-0.412,0.62-0.825,1.239-1.651,1.859c-0.827,0.619-1.652,0.826-2.686,0.826h-9.088
					l33.461-62.792h11.979L245.463,431.328z M208.284,407.574h20.035l-4.751-20.861c-0.206-0.826-0.412-2.065-0.619-3.305
					s-0.413-2.686-0.62-4.131c-0.619,1.445-1.239,2.892-1.858,4.131c-0.62,1.239-1.033,2.479-1.652,3.305L208.284,407.574z"/>
				<linearGradient id="SVGID_2_" gradientUnits="userSpaceOnUse" x1="274.9775" y1="373.9097" x2="272.8175" y2="404.8705">
					<stop  offset="0" style="stop-color:#FFFFFF"/>
					<stop  offset="1" style="stop-color:#F7F7F7"/>
				</linearGradient>
				<path fill="url(#SVGID_2_)" d="M248.148,445.787l8.262-59.074h6.609c1.446,0,2.272,0.62,2.479,1.859l0.207,4.131
					c2.065-2.065,4.338-3.718,6.816-4.957c2.479-1.24,5.37-1.859,8.468-1.859c2.479,0,4.545,0.413,6.403,1.446
					c1.859,1.033,3.305,2.479,4.544,4.337c1.239,1.859,2.065,4.338,2.479,7.022c0.414,2.893,0.414,5.991-0.206,9.709
					c-0.413,3.304-1.446,6.402-2.686,9.295c-1.239,2.891-2.892,5.369-4.957,7.436c-1.859,2.064-4.131,3.718-6.816,4.957
					c-2.479,1.239-5.163,1.859-8.262,1.859c-2.479,0-4.544-0.414-6.196-1.24s-3.099-1.858-4.338-3.098l-2.479,18.177H248.148z
					 M276.239,394.355c-2.272,0-4.131,0.413-5.99,1.446c-1.652,1.032-3.305,2.271-4.957,3.924l-2.892,20.035
					c1.032,1.446,2.271,2.479,3.512,3.099c1.445,0.619,2.892,0.826,4.544,0.826s3.098-0.207,4.544-0.826
					c1.445-0.62,2.685-1.445,3.718-2.685c1.032-1.239,2.065-2.893,2.686-4.752c0.619-1.858,1.239-4.13,1.652-6.609
					c0.412-2.685,0.412-4.75,0.206-6.608c-0.206-1.859-0.619-3.306-1.239-4.338c-0.619-1.033-1.445-1.859-2.479-2.479
					C278.924,394.769,277.685,394.355,276.239,394.355z"/>
				<linearGradient id="SVGID_3_" gradientUnits="userSpaceOnUse" x1="311.9551" y1="376.4893" x2="309.795" y2="407.4503">
					<stop  offset="0" style="stop-color:#FFFFFF"/>
					<stop  offset="1" style="stop-color:#F7F7F7"/>
				</linearGradient>
				<path fill="url(#SVGID_3_)" d="M320.234,373.907c-0.207,0.826-0.414,1.858-1.033,2.685c-0.413,0.827-1.032,1.446-1.859,2.066
					c-0.619,0.619-1.444,1.032-2.479,1.445c-0.825,0.413-1.858,0.619-2.685,0.619s-1.858-0.206-2.479-0.619
					c-0.826-0.413-1.445-0.826-1.858-1.445c-0.62-0.62-0.826-1.239-1.24-2.066c-0.206-0.826-0.206-1.652-0.206-2.685
					c0.206-1.033,0.413-1.859,0.826-2.686s1.033-1.652,1.859-2.065c0.619-0.62,1.445-1.032,2.271-1.445
					c0.826-0.414,1.859-0.62,2.686-0.62c1.032,0,1.859,0.206,2.685,0.62c0.826,0.413,1.446,0.825,2.065,1.445
					c0.62,0.619,1.032,1.239,1.239,2.065S320.44,372.874,320.234,373.907z M316.93,386.92l-6.196,44.408h-10.741l6.196-44.408
					H316.93z"/>
				<linearGradient id="SVGID_4_" gradientUnits="userSpaceOnUse" x1="338.8916" y1="378.3687" x2="336.7316" y2="409.3294">
					<stop  offset="0" style="stop-color:#FFFFFF"/>
					<stop  offset="1" style="stop-color:#F7F7F7"/>
				</linearGradient>
				<path fill="url(#SVGID_4_)" d="M336.346,431.948c-3.925,0-6.61-1.034-8.47-3.306c-1.858-2.271-2.271-5.164-1.858-9.088
					l3.512-24.786h-4.545c-0.619,0-1.032-0.206-1.445-0.619c-0.413-0.414-0.413-1.033-0.413-1.653l0.619-4.337l7.229-1.239
					l3.925-12.187c0.207-0.62,0.619-1.033,1.032-1.446c0.414-0.413,1.033-0.413,1.653-0.413h5.576l-2.065,14.046h11.98l-1.032,7.643
					h-11.98l-3.306,24.373c-0.206,1.444,0,2.479,0.62,3.304c0.619,0.826,1.446,1.239,2.686,1.239c0.619,0,1.239,0,1.652-0.206
					c0.412-0.207,0.826-0.413,1.239-0.413c0.412-0.206,0.619-0.413,1.032-0.413c0.207-0.207,0.619-0.207,0.826-0.207
					c0.413,0,0.62,0,0.826,0.207s0.413,0.413,0.62,0.619l2.479,5.164c-1.653,1.239-3.718,2.272-5.783,2.892
					C340.683,431.741,338.41,431.948,336.346,431.948z"/>
				<linearGradient id="SVGID_5_" gradientUnits="userSpaceOnUse" x1="372.3271" y1="380.7021" x2="370.1671" y2="411.6627">
					<stop  offset="0" style="stop-color:#FFFFFF"/>
					<stop  offset="1" style="stop-color:#F7F7F7"/>
				</linearGradient>
				<path fill="url(#SVGID_5_)" d="M353.901,431.328l6.196-44.408h6.196c1.034,0,1.86,0.206,2.273,0.619
					c0.412,0.413,0.619,1.033,0.619,2.066v4.957c1.859-2.686,3.718-4.751,5.784-6.196c2.064-1.446,4.543-2.272,7.021-2.272
					c2.066,0,3.718,0.412,4.752,1.445l-1.859,8.056c-0.207,0.619-0.414,0.826-0.826,1.033c-0.207,0.206-0.62,0.413-1.239,0.413
					c-0.413,0-1.033,0-1.859-0.207c-0.826-0.206-1.652-0.206-2.479-0.206c-1.239,0-2.271,0.206-3.305,0.619
					s-1.859,0.826-2.685,1.445c-0.827,0.62-1.653,1.446-2.273,2.273c-0.619,0.825-1.444,2.064-2.064,3.098l-3.512,27.265H353.901z"
					/>
				<linearGradient id="SVGID_6_" gradientUnits="userSpaceOnUse" x1="406.2959" y1="383.0713" x2="404.136" y2="414.031">
					<stop  offset="0" style="stop-color:#FFFFFF"/>
					<stop  offset="1" style="stop-color:#F7F7F7"/>
				</linearGradient>
				<path fill="url(#SVGID_6_)" d="M414.834,431.328c-1.032,0-1.859-0.207-2.271-0.414c-0.413-0.206-0.827-0.825-1.033-1.858
					l-0.413-3.099c-1.239,1.033-2.479,1.859-3.718,2.686s-2.479,1.446-3.512,1.859c-1.239,0.619-2.479,0.826-3.925,1.239
					c-1.444,0.207-2.891,0.412-4.337,0.412c-1.859,0-3.512-0.205-5.163-0.825c-1.446-0.414-2.686-1.239-3.718-2.272
					c-1.034-1.032-1.653-2.271-2.066-3.718c-0.412-1.445-0.412-3.305-0.207-5.163c0.207-1.653,0.827-3.306,2.066-4.958
					c1.032-1.652,2.686-3.098,4.957-4.337s5.164-2.479,8.675-3.306c3.511-0.826,7.849-1.445,13.013-1.445l0.413-2.685
					c0.413-2.893,0-5.164-1.032-6.61c-1.033-1.445-2.892-2.065-5.164-2.065c-1.652,0-3.099,0.206-4.338,0.62
					c-1.239,0.413-2.271,0.825-3.305,1.445c-1.033,0.413-1.858,1.033-2.479,1.446c-0.826,0.412-1.652,0.619-2.479,0.619
					s-1.446-0.207-1.858-0.619c-0.414-0.413-0.827-0.827-1.033-1.446l-1.445-3.511c5.782-4.751,12.186-7.023,19.415-7.023
					c2.686,0,4.957,0.413,6.815,1.239c1.859,0.827,3.513,2.066,4.752,3.512s2.064,3.305,2.479,5.37
					c0.412,2.065,0.412,4.338,0.206,7.023l-4.544,27.884H414.834z M399.757,424.718c2.271,0,4.13-0.413,5.782-1.239
					c1.653-0.825,3.512-2.064,5.164-3.718l1.032-7.436c-3.098,0.207-5.782,0.413-7.849,0.826c-2.065,0.413-3.925,0.826-5.164,1.446
					c-1.445,0.619-2.271,1.239-3.098,2.064c-0.62,0.827-1.032,1.653-1.239,2.686c-0.206,1.859,0,3.306,1.033,4.131
					C396.451,424.305,397.897,424.718,399.757,424.718z"/>
				<linearGradient id="SVGID_7_" gradientUnits="userSpaceOnUse" x1="454.3125" y1="386.4209" x2="452.1525" y2="417.3813">
					<stop  offset="0" style="stop-color:#FFFFFF"/>
					<stop  offset="1" style="stop-color:#F7F7F7"/>
				</linearGradient>
				<path fill="url(#SVGID_7_)" d="M461.722,431.328c-1.446,0-2.273-0.62-2.479-1.859l-0.206-4.337
					c-1.033,1.032-2.272,2.064-3.306,2.892c-1.032,0.826-2.271,1.651-3.511,2.271c-1.239,0.619-2.479,1.033-3.925,1.446
					c-1.445,0.412-2.892,0.412-4.338,0.412c-2.479,0-4.543-0.412-6.402-1.445c-1.858-1.033-3.512-2.479-4.544-4.337
					c-1.239-1.859-2.066-4.338-2.479-7.23c-0.413-2.891-0.413-5.989,0.207-9.707c0.412-3.305,1.239-6.403,2.684-9.295
					c1.24-2.892,2.893-5.37,4.958-7.436s4.131-3.718,6.815-4.957c2.479-1.24,5.164-1.859,8.056-1.859
					c2.479,0,4.545,0.413,6.196,1.239c1.653,0.826,3.099,1.859,4.338,3.099l3.305-23.547h10.741l-9.502,64.65H461.722z
					 M448.709,423.479c2.271,0,4.13-0.413,5.782-1.445c1.653-0.826,3.306-2.272,4.957-3.925l2.893-20.035
					c-1.033-1.445-2.272-2.479-3.512-3.099c-1.445-0.619-2.892-0.825-4.544-0.825s-3.098,0.206-4.544,0.825
					c-1.446,0.62-2.686,1.446-3.718,2.686s-2.066,2.892-2.686,4.75c-0.826,1.859-1.239,4.132-1.652,6.61
					c-0.413,2.685-0.413,4.751-0.207,6.609c0.207,1.859,0.62,3.306,1.239,4.338c0.62,1.239,1.446,2.065,2.479,2.479
					C446.023,423.272,447.263,423.479,448.709,423.479z"/>
				<linearGradient id="SVGID_8_" gradientUnits="userSpaceOnUse" x1="501.3477" y1="389.7031" x2="499.1877" y2="420.6628">
					<stop  offset="0" style="stop-color:#FFFFFF"/>
					<stop  offset="1" style="stop-color:#F7F7F7"/>
				</linearGradient>
				<path fill="url(#SVGID_8_)" d="M504.271,386.094c2.892,0,5.37,0.412,7.643,1.445c2.271,0.827,4.13,2.272,5.576,3.925
					s2.479,3.925,3.099,6.403s0.619,5.37,0.207,8.468c-0.207,1.652-0.62,2.686-1.033,3.306c-0.413,0.619-1.033,0.825-2.065,0.825
					h-27.471c-0.207,2.272,0,4.338,0.412,5.991c0.414,1.651,1.032,3.098,1.859,4.13c0.826,1.033,2.065,1.859,3.305,2.479
					c1.446,0.62,2.892,0.827,4.545,0.827c1.651,0,3.304-0.207,4.543-0.62s2.479-0.826,3.512-1.446
					c1.033-0.412,1.859-1.032,2.685-1.446c0.827-0.412,1.446-0.619,2.066-0.619c0.826,0,1.446,0.414,1.858,1.033l2.479,3.924
					c-1.446,1.446-2.891,2.479-4.544,3.512c-1.652,1.033-3.305,1.652-4.957,2.272c-1.652,0.619-3.305,1.032-5.163,1.239
					c-1.653,0.207-3.306,0.412-4.957,0.412c-3.099,0-5.991-0.412-8.47-1.445s-4.543-2.479-6.196-4.544
					c-1.652-2.065-2.892-4.544-3.511-7.436c-0.62-2.892-0.827-6.403-0.207-10.327c0.412-3.099,1.239-5.991,2.686-8.47
					c1.446-2.685,3.098-4.957,5.164-7.021c2.064-2.065,4.543-3.512,7.436-4.751C497.868,386.713,500.966,386.094,504.271,386.094z
					 M503.444,393.735c-3.098,0-5.783,0.827-7.643,2.686c-2.065,1.859-3.511,4.338-4.337,7.436h20.241
					c0.207-1.446,0.207-2.686,0-3.925c-0.206-1.239-0.62-2.271-1.239-3.304c-0.62-1.033-1.445-1.653-2.685-2.272
					C506.336,394.149,504.89,393.735,503.444,393.735z"/>
			</g>
			<g opacity="0.5">
				<linearGradient id="SVGID_9_" gradientUnits="userSpaceOnUse" x1="534.9727" y1="392.6396" x2="533.4855" y2="413.9558">
					<stop  offset="0" style="stop-color:#FFFFFF"/>
					<stop  offset="1" style="stop-color:#F7F7F7"/>
				</linearGradient>
				<path fill="url(#SVGID_9_)" d="M531.67,405.996c0-0.328,0.059-0.639,0.178-0.93c0.121-0.289,0.288-0.543,0.505-0.76
					c0.216-0.215,0.466-0.386,0.75-0.512c0.284-0.125,0.597-0.188,0.938-0.188c0.33,0,0.641,0.062,0.932,0.188
					c0.288,0.126,0.539,0.297,0.75,0.512c0.21,0.217,0.379,0.471,0.503,0.76c0.124,0.291,0.188,0.602,0.188,0.93
					c0,0.342-0.063,0.654-0.188,0.939c-0.124,0.284-0.293,0.535-0.503,0.75c-0.211,0.217-0.462,0.385-0.75,0.504
					c-0.291,0.119-0.602,0.18-0.932,0.18c-0.342,0-0.654-0.061-0.938-0.18s-0.534-0.287-0.75-0.504
					c-0.217-0.215-0.384-0.466-0.505-0.75C531.729,406.65,531.67,406.338,531.67,405.996z"/>
			</g>
			<g opacity="0.5">
				<linearGradient id="SVGID_10_" gradientUnits="userSpaceOnUse" x1="548.4229" y1="393.5786" x2="546.9357" y2="414.8949">
					<stop  offset="0" style="stop-color:#FFFFFF"/>
					<stop  offset="1" style="stop-color:#F7F7F7"/>
				</linearGradient>
				<path fill="url(#SVGID_10_)" d="M539.145,413.898l2.832-23.227h1.842c0.398,0,0.703,0.1,0.914,0.299s0.316,0.509,0.316,0.93
					l-0.205,3.003c0.42-0.682,0.878-1.296,1.374-1.842c0.494-0.547,1.015-1.016,1.561-1.408c0.546-0.393,1.112-0.694,1.698-0.905
					s1.186-0.315,1.801-0.315c0.729,0,1.385,0.133,1.971,0.4c0.587,0.268,1.083,0.672,1.493,1.212
					c0.41,0.541,0.725,1.211,0.948,2.014c0.221,0.803,0.332,1.738,0.332,2.808c0,0.967-0.1,1.922-0.299,2.867
					c-0.199,0.944-0.482,1.84-0.846,2.687c-0.363,0.849-0.805,1.636-1.322,2.364c-0.517,0.729-1.089,1.357-1.715,1.885
					c-0.625,0.529-1.303,0.945-2.031,1.247c-0.727,0.3-1.484,0.452-2.27,0.452c-0.818,0-1.561-0.153-2.227-0.461
					c-0.665-0.308-1.236-0.734-1.715-1.28l-0.888,7.271H539.145z M549.86,393.368c-0.501,0-1.009,0.162-1.527,0.487
					c-0.517,0.324-1.015,0.776-1.493,1.356s-0.925,1.263-1.339,2.048c-0.416,0.785-0.771,1.639-1.067,2.562l-0.546,4.333
					c0.409,0.513,0.89,0.87,1.442,1.075c0.551,0.205,1.105,0.307,1.663,0.307c0.546,0,1.06-0.113,1.536-0.341
					c0.478-0.228,0.916-0.54,1.314-0.938s0.756-0.867,1.074-1.408c0.318-0.539,0.586-1.117,0.803-1.73
					c0.217-0.615,0.381-1.256,0.494-1.921c0.114-0.666,0.17-1.322,0.17-1.972c0-1.285-0.219-2.25-0.656-2.893
					C551.291,393.689,550.668,393.368,549.86,393.368z"/>
			</g>
			<g opacity="0.5">
				<linearGradient id="SVGID_11_" gradientUnits="userSpaceOnUse" x1="564.2168" y1="394.6802" x2="562.7296" y2="415.9975">
					<stop  offset="0" style="stop-color:#FFFFFF"/>
					<stop  offset="1" style="stop-color:#F7F7F7"/>
				</linearGradient>
				<path fill="url(#SVGID_11_)" d="M558.086,408.113l2.1-17.441h1.842c0.398,0,0.703,0.1,0.914,0.299
					c0.21,0.199,0.314,0.509,0.314,0.93l-0.204,3.294c0.455-0.911,0.941-1.695,1.46-2.354c0.517-0.66,1.058-1.178,1.621-1.553
					c0.562-0.376,1.141-0.6,1.73-0.674c0.592-0.074,1.195,0.02,1.811,0.281l-0.667,3.517c-1.444-0.581-2.71-0.396-3.797,0.554
					c-1.085,0.95-1.959,2.739-2.618,5.368l-0.922,7.781H558.086z"/>
			</g>
			<g opacity="0.5">
				<linearGradient id="SVGID_12_" gradientUnits="userSpaceOnUse" x1="577.5645" y1="395.6113" x2="576.0774" y2="416.9263">
					<stop  offset="0" style="stop-color:#FFFFFF"/>
					<stop  offset="1" style="stop-color:#F7F7F7"/>
				</linearGradient>
				<path fill="url(#SVGID_12_)" d="M576.09,408.369c-0.957,0-1.838-0.162-2.646-0.486s-1.505-0.797-2.09-1.417
					c-0.587-0.62-1.044-1.381-1.374-2.286c-0.331-0.904-0.496-1.932-0.496-3.081c0-1.491,0.237-2.884,0.709-4.181
					c0.473-1.298,1.117-2.427,1.937-3.388s1.778-1.717,2.875-2.269c1.099-0.552,2.272-0.828,3.524-0.828
					c0.957,0,1.838,0.162,2.646,0.486s1.502,0.797,2.082,1.417c0.58,0.62,1.035,1.382,1.366,2.287
					c0.328,0.905,0.494,1.932,0.494,3.081c0,0.979-0.109,1.922-0.324,2.833c-0.217,0.909-0.518,1.761-0.904,2.552
					c-0.388,0.79-0.857,1.51-1.408,2.158c-0.553,0.648-1.16,1.203-1.826,1.663c-0.666,0.462-1.385,0.819-2.158,1.075
					C577.721,408.24,576.92,408.369,576.09,408.369z M576.414,405.502c0.761,0,1.455-0.213,2.082-0.641
					c0.625-0.426,1.157-0.998,1.594-1.715c0.439-0.717,0.777-1.545,1.016-2.482c0.24-0.939,0.359-1.92,0.359-2.943
					c0-1.503-0.275-2.614-0.828-3.337c-0.552-0.722-1.367-1.083-2.448-1.083c-0.774,0-1.47,0.21-2.091,0.631
					c-0.619,0.421-1.146,0.984-1.578,1.688c-0.433,0.706-0.768,1.532-1.007,2.476c-0.239,0.944-0.358,1.934-0.358,2.969
					C573.154,404.023,574.24,405.502,576.414,405.502z"/>
			</g>
			<linearGradient id="SVGID_13_" gradientUnits="userSpaceOnUse" x1="32.3691" y1="393.1309" x2="160.7935" y2="393.1309">
				<stop  offset="0" style="stop-color:#FFFFFF"/>
				<stop  offset="1" style="stop-color:#F7F7F7"/>
			</linearGradient>
			<path fill="url(#SVGID_13_)" d="M160.793,445.15l-48.769-91.034c0,0-4.877-13.005-14.631-13.005s-14.63,13.005-14.63,13.005
				L32.369,445.15h26.01l39.015-74.778l37.389,74.778H160.793z"/>
			<linearGradient id="SVGID_14_" gradientUnits="userSpaceOnUse" x1="73.0098" y1="430.5205" x2="121.7783" y2="430.5205">
				<stop  offset="0" style="stop-color:#FFFFFF"/>
				<stop  offset="1" style="stop-color:#F7F7F7"/>
			</linearGradient>
			<polygon fill="url(#SVGID_14_)" points="121.778,430.521 104.709,430.521 105.035,445.15 88.94,445.15 88.453,430.521 
				73.01,430.521 81.138,415.891 113.65,415.891 			"/>
		</g>
	</g>
</g>
</svg>
