<svg xmlns="http://www.w3.org/2000/svg" viewBox="384 -665 32 37"><defs><style>.a{fill:#08c;}.b{fill:#fff;}.c{fill:#fdd835;}.d{fill:#363636;}</style></defs><circle class="a" cx="16" cy="16" r="16" transform="translate(384 -665)"/><path class="b" d="M.318,26.915l4.148,1.548,1.605,5.163a.488.488,0,0,0,.775.233l2.312-1.885A.69.69,0,0,1,10,31.951l4.17,3.027a.489.489,0,0,0,.766-.3L17.99,19.99a.489.489,0,0,0-.655-.556L.313,26A.489.489,0,0,0,.318,26.915Zm5.494.724,8.106-4.992a.141.141,0,0,1,.17.224L7.4,29.089a1.387,1.387,0,0,0-.43.83l-.228,1.689a.209.209,0,0,1-.409.03l-.876-3.08A.816.816,0,0,1,5.812,27.639Z" transform="translate(389 -676.401)"/><rect class="c" width="30" height="11" rx="2" transform="translate(385 -639)"/><path class="d" d="M4.4-2.344l1.551.469a2.86,2.86,0,0,1-.492,1.09,2.136,2.136,0,0,1-.834.66A3.119,3.119,0,0,1,3.355.1,3.68,3.68,0,0,1,1.83-.174,2.418,2.418,0,0,1,.809-1.128a3.235,3.235,0,0,1-.43-1.749,2.972,2.972,0,0,1,.756-2.184,2.876,2.876,0,0,1,2.139-.763,2.9,2.9,0,0,1,1.7.438,2.57,2.57,0,0,1,.92,1.344L4.332-3.7a1.338,1.338,0,0,0-.172-.383A1.018,1.018,0,0,0,3.8-4.391a1.044,1.044,0,0,0-.48-.109,1.039,1.039,0,0,0-.922.484,2.055,2.055,0,0,0-.242,1.128,2.143,2.143,0,0,0,.289,1.305.991.991,0,0,0,.813.353.986.986,0,0,0,.768-.285A1.764,1.764,0,0,0,4.4-2.344ZM7.392-5.727h1.77v2H11.1v-2h1.777V0H11.1V-2.316H9.162V0H7.392ZM18.145-.945H16.136L15.857,0H14.05L16.2-5.727h1.93L20.285,0H18.432Zm-.367-1.238-.632-2.059-.625,2.059ZM20.47-5.727h5.379v1.414h-1.8V0h-1.77V-4.312h-1.8Z" transform="translate(386.871 -630.576)"/></svg>